<svg xmlns="http://www.w3.org/2000/svg" width="400" height="400" viewBox="0 0 400 400" role="img" aria-labelledby="title desc">
<title id="title">NixOS Config</title><desc id="desc">A dense structural globe with repeated meridians, fine parallels and orbital guide rings.</desc>
<defs><clipPath id="globe"><circle cx="200" cy="200" r="110"/></clipPath></defs>
<circle cx="200" cy="200" r="110" fill="none" stroke="#f1efe9" stroke-width="1.2" opacity="0.88"/>
<g clip-path="url(#globe)">
<ellipse cx="200" cy="200" rx="110" ry="13" fill="none" stroke="#f1efe9" stroke-width="1.0" opacity="0.55"/>
<ellipse cx="200" cy="200" rx="110" ry="26" fill="none" stroke="#f1efe9" stroke-width="1.12" opacity="0.68"/>
<ellipse cx="200" cy="200" rx="110" ry="39" fill="none" stroke="#ff4d2e" stroke-width="1.0" opacity="0.55"/>
<ellipse cx="200" cy="200" rx="110" ry="52" fill="none" stroke="#f1efe9" stroke-width="1.12" opacity="0.68"/>
<ellipse cx="200" cy="200" rx="110" ry="65" fill="none" stroke="#f1efe9" stroke-width="1.0" opacity="0.55"/>
<ellipse cx="200" cy="200" rx="110" ry="78" fill="none" stroke="#ff4d2e" stroke-width="1.12" opacity="0.68"/>
<ellipse cx="200" cy="200" rx="110" ry="91" fill="none" stroke="#f1efe9" stroke-width="1.0" opacity="0.55"/>
<ellipse cx="200" cy="200" rx="110" ry="103" fill="none" stroke="#f1efe9" stroke-width="1.0" opacity="0.55"/>
<ellipse cx="200" cy="200" rx="15" ry="110" fill="none" stroke="#f1efe9" stroke-width="1.05" opacity="0.62"/>
<ellipse cx="200" cy="200" rx="30" ry="110" fill="none" stroke="#ff4d2e" stroke-width="1.05" opacity="0.78"/>
<ellipse cx="200" cy="200" rx="45" ry="110" fill="none" stroke="#f1efe9" stroke-width="1.05" opacity="0.62"/>
<ellipse cx="200" cy="200" rx="60" ry="110" fill="none" stroke="#f1efe9" stroke-width="1.05" opacity="0.78"/>
<ellipse cx="200" cy="200" rx="75" ry="110" fill="none" stroke="#ff4d2e" stroke-width="1.05" opacity="0.62"/>
<ellipse cx="200" cy="200" rx="90" ry="110" fill="none" stroke="#f1efe9" stroke-width="1.05" opacity="0.78"/>
<ellipse cx="200" cy="200" rx="102" ry="110" fill="none" stroke="#f1efe9" stroke-width="1.05" opacity="0.78"/>
</g>
<ellipse cx="200" cy="200" rx="143" ry="42" fill="none" stroke="#ff4d2e" stroke-width="1.8" opacity="0.92" transform="rotate(-18 200 200)" stroke-dasharray="3 4"/>
<ellipse cx="200" cy="200" rx="137" ry="54" fill="none" stroke="#f1efe9" stroke-width="1.35" opacity="0.78" transform="rotate(47 200 200)" stroke-dasharray="3 4"/>
<ellipse cx="200" cy="200" rx="151" ry="31" fill="none" stroke="#ff4d2e" stroke-width="1.15" opacity="0.65" transform="rotate(79 200 200)" stroke-dasharray="3 4"/>
<circle cx="200" cy="90" r="2.2" fill="#ff4d2e" stroke="#ff4d2e" stroke-width="0.6" opacity="0.9"/>
<path d="M195 90 H205" fill="none" stroke="#f1efe9" stroke-width="0.7" stroke-linecap="round" stroke-linejoin="round" opacity="0.76" />
<circle cx="310" cy="200" r="2.2" fill="#ff4d2e" stroke="#ff4d2e" stroke-width="0.6" opacity="0.9"/>
<path d="M305 200 H315" fill="none" stroke="#f1efe9" stroke-width="0.7" stroke-linecap="round" stroke-linejoin="round" opacity="0.76" />
<circle cx="200" cy="310" r="2.2" fill="#ff4d2e" stroke="#ff4d2e" stroke-width="0.6" opacity="0.9"/>
<path d="M195 310 H205" fill="none" stroke="#f1efe9" stroke-width="0.7" stroke-linecap="round" stroke-linejoin="round" opacity="0.76" />
<circle cx="90" cy="200" r="2.2" fill="#ff4d2e" stroke="#ff4d2e" stroke-width="0.6" opacity="0.9"/>
<path d="M85 200 H95" fill="none" stroke="#f1efe9" stroke-width="0.7" stroke-linecap="round" stroke-linejoin="round" opacity="0.76" />
<path d="M200 42 V358" fill="none" stroke="#f1efe9" stroke-width="0.85" stroke-linecap="round" stroke-linejoin="round" opacity="0.48" />
</svg>
